<svg xmlns="http://www.w3.org/2000/svg" width="1280" height="800" viewBox="0 0 1280 800" fill="none">
  <rect width="1280" height="800" fill="#000000"/>
  <rect x="80" y="80" width="1120" height="640" rx="22" fill="#020B06" stroke="#00FF66"/>
  <rect x="120" y="125" width="1040" height="84" rx="14" fill="#000000" stroke="#0A3320"/>
  <rect x="920" y="146" width="200" height="42" rx="21" fill="#00FF66"/>
  <rect x="120" y="240" width="610" height="440" rx="16" fill="#000000" stroke="#0A3320"/>
  <rect x="760" y="240" width="400" height="190" rx="16" fill="#000000" stroke="#0A3320"/>
  <rect x="760" y="460" width="400" height="220" rx="16" fill="#000000" stroke="#0A3320"/>
  <rect x="170" y="290" width="300" height="30" rx="15" fill="#0A3320"/>
  <rect x="170" y="336" width="240" height="14" rx="7" fill="#00FF66" opacity="0.3"/>
  <rect x="170" y="364" width="270" height="14" rx="7" fill="#00FF66" opacity="0.3"/>
  <circle cx="960" cy="335" r="54" fill="#00FF66" opacity="0.24"/>
  <path d="M930 335h60M960 305v60" stroke="#FFFFFF" stroke-width="8" stroke-linecap="round"/>
  <text x="120" y="58" fill="#FFFFFF" font-size="30" font-family="Segoe UI, Arial, sans-serif">Modern Clinic Design</text>
</svg>
